<svg id="Layer_1" data-name="Layer 1" xmlns="http://www.w3.org/2000/svg" viewBox="0 0 438.08 58.53"><defs><style>.cls-1{fill:#fe2c25;}.cls-1,.cls-2,.cls-3,.cls-4{opacity:1;isolation:isolate;}.cls-2{fill:#2785fc;}.cls-3{fill:#ffba00;}.cls-4{fill:#00a050;}.cls-5{fill:#707070;}</style></defs><title>dsc-logo</title><g id="Group_2" data-name="Group 2"><g id="Group_1" data-name="Group 1"><path id="Path_1" data-name="Path 1" class="cls-1" d="M110.36,54.33,76.71,73.15a9.89,9.89,0,0,1-13.27-3.44A9.25,9.25,0,0,1,66.68,57l.31-.18L100.64,38a9.88,9.88,0,0,1,13.27,3.44,9.24,9.24,0,0,1-3.24,12.67A2.48,2.48,0,0,1,110.36,54.33Z" transform="translate(-62.14 -36.77)"/><path id="Path_2" data-name="Path 2" class="cls-2" d="M100.64,92,67,73.15a9.25,9.25,0,0,1-3.74-12.53l.18-.32A9.89,9.89,0,0,1,76.7,56.85l33.66,18.82a9.26,9.26,0,0,1,3.73,12.54l-.18.32A9.89,9.89,0,0,1,100.64,92Z" transform="translate(-62.14 -36.77)"/><path id="Path_4" data-name="Path 4" class="cls-3" d="M139.43,92l33.66-18.82a9.24,9.24,0,0,0,3.73-12.53l-.18-.32a9.88,9.88,0,0,0-13.27-3.44L129.72,75.67A9.26,9.26,0,0,0,126,88.21l.18.32A9.89,9.89,0,0,0,139.43,92Z" transform="translate(-62.14 -36.77)"/><path id="Path_3" data-name="Path 3" class="cls-4" d="M129.72,54.33l33.65,18.82a9.89,9.89,0,0,0,13.27-3.44A9.25,9.25,0,0,0,173.4,57l-.31-.18L139.43,38a9.88,9.88,0,0,0-13.27,3.44,9.25,9.25,0,0,0,3.24,12.67A2.58,2.58,0,0,0,129.72,54.33Z" transform="translate(-62.14 -36.77)"/></g><path id="Path_6" data-name="Path 6" class="cls-5" d="M227.64,88.14V46.81h11.94a21.85,21.85,0,0,1,8.28,1.38,13.45,13.45,0,0,1,5.48,4,16.37,16.37,0,0,1,3.06,6.42,35.49,35.49,0,0,1,.93,8.54,30.09,30.09,0,0,1-1,8.39,20.4,20.4,0,0,1-2.57,5.78A13.7,13.7,0,0,1,250.21,85a17.72,17.72,0,0,1-4,2,17.16,17.16,0,0,1-3.81.89,29.8,29.8,0,0,1-3,.19Zm-7.09-47.3V94.11h18.28a32,32,0,0,0,11.49-1.87,20,20,0,0,0,8-5.41,22.19,22.19,0,0,0,4.63-8.73,43,43,0,0,0,1.49-11.89q0-12.84-6.64-19.1t-18.95-6.27Zm83.33,15.59h6.71a18.68,18.68,0,0,0-1.68-7.57,14.63,14.63,0,0,0-4.17-5.26,17.19,17.19,0,0,0-6.16-3.05,27.93,27.93,0,0,0-7.61-1,26.77,26.77,0,0,0-7.12.93,19.43,19.43,0,0,0-6.19,2.83,14.29,14.29,0,0,0-4.36,4.85,14,14,0,0,0-1.64,7,11.64,11.64,0,0,0,1.45,6.08,11.82,11.82,0,0,0,3.88,4,22.49,22.49,0,0,0,5.48,2.46q3.06.93,6.23,1.64l6.23,1.38a28.46,28.46,0,0,1,5.48,1.76,10.56,10.56,0,0,1,3.88,2.79,6.73,6.73,0,0,1,1.46,4.48,8.22,8.22,0,0,1-4.33,7.72A14.33,14.33,0,0,1,297.06,89a26.81,26.81,0,0,1-4.81.44,22.39,22.39,0,0,1-5.82-.74,14.62,14.62,0,0,1-5-2.31,11.57,11.57,0,0,1-4.74-9.78H270a18.74,18.74,0,0,0,1.76,8.4,15.91,15.91,0,0,0,4.77,5.81,20.66,20.66,0,0,0,7,3.4A31.09,31.09,0,0,0,292,95.3a32,32,0,0,0,7.35-.86A21.08,21.08,0,0,0,306,91.68a15.63,15.63,0,0,0,4.89-4.92,13.29,13.29,0,0,0,1.9-7.27,13.37,13.37,0,0,0-1.45-6.57,13,13,0,0,0-3.88-4.33A20.69,20.69,0,0,0,302,65.87c-2-.67-4.11-1.26-6.22-1.75s-4.19-1-6.23-1.38a32.89,32.89,0,0,1-5.49-1.61,10.74,10.74,0,0,1-3.88-2.5,5.57,5.57,0,0,1-1.45-4,8.62,8.62,0,0,1,1-4.36,7.82,7.82,0,0,1,2.68-2.8A11.85,11.85,0,0,1,286.27,46a21.76,21.76,0,0,1,4.4-.45,15,15,0,0,1,9.07,2.58Q303.28,50.7,303.88,56.43Zm55,.45h7.08a19.85,19.85,0,0,0-2.53-7.5,18.41,18.41,0,0,0-4.85-5.4,21,21,0,0,0-6.64-3.28A27.16,27.16,0,0,0,344,39.58a25.49,25.49,0,0,0-10.85,2.2,22.42,22.42,0,0,0-7.91,6,26.35,26.35,0,0,0-4.81,8.92,35.48,35.48,0,0,0-1.64,10.92,37.58,37.58,0,0,0,1.53,10.9,25.28,25.28,0,0,0,4.58,8.8,21.25,21.25,0,0,0,7.69,5.85,25.62,25.62,0,0,0,10.81,2.13q10.23,0,16.12-5.6T366.46,74h-7.08A20.46,20.46,0,0,1,358,80.16a14.9,14.9,0,0,1-3.1,4.88,14,14,0,0,1-4.7,3.21A16,16,0,0,1,344,89.41a17.51,17.51,0,0,1-8.2-1.8,16.06,16.06,0,0,1-5.64-4.81,20.62,20.62,0,0,1-3.24-7.08,34.36,34.36,0,0,1-1-8.62,30.9,30.9,0,0,1,1-8.06,21,21,0,0,1,3.24-6.9,16.22,16.22,0,0,1,5.6-4.81,17.38,17.38,0,0,1,8.17-1.79,16.52,16.52,0,0,1,9.66,2.84,13.19,13.19,0,0,1,5.26,8.5Zm30.95-16h9.7L412.87,83H413l13.66-42.15h9.47l-18.2,53.27H407.57Zm51.63,0h9.32V94.11h-9.32Zm15.66,0h43.12V48.9H483.28V94.11H474V48.9H457.1Z" transform="translate(-62.14 -36.77)"/></g></svg>